<svg width="277" height="214" viewBox="0 0 277 214" fill="none" xmlns="http://www.w3.org/2000/svg">
<g clip-path="url(#clip0_20_208)">
<path d="M83.2082 149.521C86.0978 151.268 86.3828 152.092 88.1335 152.813C89.0195 153.177 90.6785 153.679 93.8796 153.224C98.2904 152.598 101.01 150.812 108.655 146.64C114.108 143.665 116.774 142.364 120.558 141.702C123.393 141.206 125.041 141.387 126.304 141.702C130.711 142.802 133.116 146.21 133.692 147.052C135.684 149.963 135.936 152.806 136.155 155.282C136.431 158.4 136.831 162.906 134.513 166.392C131.609 170.76 127.564 168.824 120.558 172.976C112.815 177.565 114.11 182.09 107.835 184.498C99.8052 187.579 91.0636 182.709 90.5961 182.44C82.2829 177.66 80.5819 168.986 76.2307 169.684C73.631 170.101 73.3721 173.336 69.2532 174.21C68.4825 174.374 65.3107 175.047 63.0966 172.976C61.7362 171.703 61.7784 174.552 62.481 172.77C63.383 170.482 65.2029 166.016 66.3802 163.512C67.0091 162.173 66.3002 161.76 66.7906 158.162C67.0301 156.405 67.1511 155.517 67.6115 154.459C68.7522 151.835 70.9674 150.481 72.5368 149.521C74.4461 148.353 76.3232 147.205 78.6934 147.463C80.0497 147.611 81.1025 148.248 83.2082 149.521Z" fill="#3F3D56"/>
<path d="M133.282 159.397C134.01 159.995 134.183 161.207 134.513 163.512C134.818 165.644 134.633 166.952 134.513 169.273C134.334 172.756 134.617 172.432 134.513 177.091C134.428 180.925 134.385 182.842 134.103 184.498C133.594 187.476 133.323 186.332 130.819 193.962C130.311 195.51 129.906 196.825 128.767 197.254C127.339 197.793 125.694 196.59 125.483 196.431C125.137 196.171 123.918 195.255 123.842 193.962C123.745 192.321 125.598 191.905 127.125 189.436C128.079 187.894 128.308 186.35 128.767 183.263C129.203 180.328 129.421 178.86 128.767 177.502C127.573 175.026 124.842 174.258 124.663 174.211C123.028 173.777 122.5 174.391 120.558 174.211C118.742 174.042 115.749 173.185 115.222 171.742C113.778 167.785 129.804 156.54 133.282 159.397Z" fill="#3F3D56"/>
<path d="M126.715 153.636C127.443 154.234 127.616 155.446 127.946 157.751C128.251 159.883 128.066 161.191 127.946 163.512C127.767 166.995 128.05 166.671 127.946 171.33C127.861 175.164 127.818 177.081 127.536 178.737C127.027 181.715 126.757 180.571 124.252 188.201C123.744 189.75 123.339 191.064 122.2 191.493C120.772 192.032 119.128 190.829 118.917 190.67C118.571 190.41 117.351 189.494 117.275 188.201C117.178 186.56 119.031 186.144 120.558 183.675C121.512 182.133 121.741 180.59 122.2 177.503C122.636 174.567 122.854 173.099 122.2 171.742C121.006 169.265 118.275 168.497 118.096 168.45C116.461 168.017 115.933 168.63 113.991 168.45C112.175 168.281 109.183 167.424 108.656 165.981C107.211 162.024 123.237 150.779 126.715 153.636Z" fill="#3F3D56"/>
<path d="M114.402 173.799C114.864 174.506 115.394 176.328 116.454 179.972C116.927 181.597 119.988 192.288 120.969 195.608C121.251 196.563 121.616 197.754 122.611 198.9C123.447 199.865 123.895 199.835 124.252 200.546C125.183 202.398 123.366 205.01 123.021 205.484C122.619 206.037 120.752 208.601 118.096 208.365C117.818 208.34 116.023 208.18 115.633 207.13C115.035 205.521 118.552 204.011 118.506 201.369C118.479 199.809 117.232 199.163 115.633 197.254C112.202 193.16 113.665 191.033 111.118 187.79C107.308 182.939 100.228 182.85 99.2155 182.852C96.5937 182.856 92.945 182.861 90.5962 185.321C87.3217 188.75 88.675 194.75 87.3127 203.838C87.3127 203.838 87.0918 205.312 86.4918 207.542C85.5016 211.222 84.7117 212.172 84.4396 212.48C84.07 212.898 82.9885 214.089 81.1561 214.537C80.9036 214.599 79.7363 214.867 78.283 214.537C77.3186 214.318 76.4393 214.119 75.8204 213.303C75.2268 212.52 75.0016 211.34 75.4099 210.422C75.904 209.311 76.9221 209.492 78.283 208.365C79.2435 207.569 79.7442 206.463 80.7457 204.25C81.189 203.27 81.853 201.785 82.3874 199.723C83.0059 197.338 83.0818 195.494 83.2083 191.905C83.3149 188.881 83.2634 186.367 83.2083 183.675C83.1441 180.54 83.0566 179.517 83.2083 177.503C83.3675 175.389 83.5225 173.332 84.0292 172.153C86.7551 165.811 108.385 164.599 114.402 173.799V173.799Z" fill="#3F3D56"/>
<path d="M131.64 145.817C133.394 144.845 133.645 142.568 134.103 138.41C134.436 135.381 134.635 133.578 133.692 131.415C132.42 128.496 130.032 127.133 129.588 126.889C129.102 126.621 125.914 124.926 122.61 126.066C122.149 126.225 120.929 127.134 118.506 128.946C115.615 131.108 115.191 131.521 114.812 132.238C113.799 134.157 113.906 136.75 114.812 137.176C115.5 137.5 116.689 136.592 117.275 135.941C117.975 135.164 117.87 134.694 118.506 133.884C119.01 133.242 119.485 133.019 120.969 132.238C124.644 130.305 124.83 130.048 125.483 130.18C127.112 130.511 127.888 132.495 127.946 132.649C128.443 133.972 128.102 135.175 127.536 137.176C127.236 138.234 126.895 139.051 126.304 140.468C125.234 143.033 124.953 143.226 125.073 143.76C125.468 145.512 129.323 147.102 131.64 145.817H131.64Z" fill="#3F3D56"/>
<path d="M89.5701 153.018C90.2487 153.131 90.578 157.021 89.5701 160.425C88.8809 162.754 87.4906 165.111 87.2425 165.526C87.0471 165.854 86.859 166.152 86.2866 167.009C83.487 171.2 82.0727 173.293 81.3613 173.182C80.4127 173.033 83.0091 170.784 83.2083 168.633C83.5786 164.635 85.3692 164.14 88.544 158.346C90.262 155.21 89.0404 152.931 89.5701 153.018Z" fill="#6C63FF"/>
<path d="M75.2047 151.784C74.8616 150.033 76.8125 147.601 78.8987 147.258C81.9407 146.756 84.5815 150.808 85.4657 153.43C86.6819 157.037 85.3161 160.136 84.6448 161.66C83.8029 163.571 83.1734 163.696 83.0031 163.717C81.7612 163.873 80.2892 161.593 79.7196 159.602C79.2183 157.851 79.784 157.612 79.3091 156.31C78.3316 153.632 75.5709 153.653 75.2047 151.784Z" fill="#2F2E41"/>
<path d="M88.9655 160.562L170.41 107.273L169.209 107L87.7646 160.289L88.9655 160.562Z" fill="#6C63FF"/>
<path d="M198.406 45.4268L196.308 37.7127L205.751 34.2063L206.8 41.2191L198.406 45.4268Z" fill="#A0616A"/>
<path opacity="0.1" d="M198.406 45.4268L196.308 37.7127L201.869 35.361L200.141 44.4552L198.406 45.4268Z" fill="black"/>
<path d="M170.763 111.54C168.96 110.464 168.864 107.288 170.551 104.446C171.289 103.202 172.246 102.229 173.24 101.618L174.231 99.9954L186.759 77.479C186.759 77.479 192.242 56.2432 194.475 53.6756C196.708 51.108 199.936 51.7129 199.936 51.7129L202.799 54.2626L192.58 84.3401L179.969 102.145L178.279 104.623C178.217 105.791 177.821 107.099 177.082 108.342C175.396 111.184 172.567 112.616 170.763 111.54H170.763Z" fill="#A0616A"/>
<path d="M197.89 43.2234C197.89 43.2234 201.875 43.069 204.389 46.1722C206.903 49.2755 193.732 84.2521 193.732 84.2521L183.004 83.8713L197.89 43.2234Z" fill="#6C63FF"/>
<path d="M198.931 38.94C204.339 38.94 208.724 34.5443 208.724 29.122C208.724 23.6997 204.339 19.304 198.931 19.304C193.523 19.304 189.138 23.6997 189.138 29.122C189.138 34.5443 193.523 38.94 198.931 38.94Z" fill="#A0616A"/>
<path d="M176.023 171.658L169.378 188.138L165.531 184.281L164.132 176.918L169.727 169.905L176.023 171.658Z" fill="#A0616A"/>
<path d="M238.277 165.697L244.922 173.411L241.774 179.723L234.78 178.671L231.282 168.853L238.277 165.697Z" fill="#A0616A"/>
<path d="M194.035 73.6536L193.16 87.8546L214.844 83.9975L213.445 75.2314L194.035 73.6536Z" fill="#A0616A"/>
<path d="M192.985 88.0298L214.844 80.8417C214.844 80.8417 222.888 96.9712 214.145 107.14C205.401 117.308 176.373 175.164 176.373 175.164L167.629 170.957L180.22 134.139L194.21 100.127L192.985 88.0298Z" fill="#2F2E41"/>
<path d="M214.145 101.179L222.539 137.996L240.026 166.398L230.932 171.658L206.451 137.996L198.406 112.049L214.145 101.179Z" fill="#2F2E41"/>
<path d="M160.984 175.515H154.927C154.927 175.515 147.859 172.71 146.203 175.515C144.546 178.32 153.593 186.276 153.593 186.276C153.593 186.276 166.23 193.398 167.979 193.047C169.728 192.697 170.427 188.489 170.427 188.489L172.525 183.58L169.378 184.632C169.378 184.632 165.181 182.177 166.23 177.97L160.984 175.515H160.984Z" fill="#2F2E41"/>
<path d="M243.523 174.463V170.957L247.589 174.463C247.589 174.463 254.365 176.918 249.119 182.177C243.873 187.437 237.228 193.047 237.228 193.047C237.228 193.047 226.735 195.852 226.036 192.697C225.336 189.541 226.036 188.264 226.036 188.264L229.883 186.385L233.381 177.268L238.976 177.97L243.523 174.463Z" fill="#2F2E41"/>
<path d="M201.904 31.0505L198.756 30.6999L192.985 24.9143C192.985 24.9143 187.739 27.7194 187.739 25.6156C187.739 15.7976 193.685 16.1482 198.581 15.447C203.478 14.7457 202.953 14.5704 204.527 17.2002C205.247 18.4029 207.849 19.1287 207.849 19.1287C207.849 19.1287 212.746 12.4665 215.194 20.5313C217.642 28.596 214.495 53.4916 216.943 55.5955C219.391 57.6993 206.89 59.8001 208.244 51.5615C209.598 43.323 212.046 30.6999 210.647 27.8948C209.248 25.0896 208.899 25.7909 208.899 25.7909C210.632 25.0812 211.765 37.5815 205.228 38.1936L205.051 32.1025C205.051 32.1025 204.002 28.9467 201.904 31.0505V31.0505Z" fill="#2F2E41"/>
<path d="M197.532 43.1477L208.024 38.94L222.014 81.0171L193.23 79.9659L190.638 67.4072C190.638 67.4072 188.108 60.8709 190.207 57.0138C192.305 53.1568 197.532 43.1477 197.532 43.1477V43.1477Z" fill="#6C63FF"/>
<path d="M224.835 113.632C222.743 113.812 220.82 111.288 220.537 107.993C220.414 106.551 220.625 105.201 221.078 104.123L220.939 102.226L218.025 76.6094C218.025 76.6094 212.6 55.6555 212.921 52.2644C213.242 48.8734 213.748 47.9731 213.748 47.9731L217.557 48.3712L226.744 78.7816L226.851 100.619L226.919 103.62C227.548 104.604 227.986 105.899 228.11 107.341C228.392 110.636 226.926 113.452 224.835 113.632Z" fill="#A0616A"/>
<path d="M207.15 42.2711C207.15 42.2711 210.298 39.8166 214.145 40.8685C217.992 41.9204 227.629 78.0366 227.629 78.0366L218.691 83.9975L207.15 42.2711Z" fill="#6C63FF"/>
</g>
<defs>
<clipPath id="clip0_20_208">
<rect width="277" height="214" fill="white"/>
</clipPath>
</defs>
</svg>
